<?xml version="1.0" standalone="no"?><!DOCTYPE svg PUBLIC "-//W3C//DTD SVG 1.1//EN" "http://www.w3.org/Graphics/SVG/1.1/DTD/svg11.dtd"><svg t="1517898909994" class="icon" style="" viewBox="0 0 1024 1024" version="1.1" xmlns="http://www.w3.org/2000/svg" p-id="1733" xmlns:xlink="http://www.w3.org/1999/xlink" width="64" height="64"><defs><style type="text/css"></style></defs><path d="M586.454736 189.857069c0 95.355765-77.29748 172.652222-172.652222 172.652222-95.349625 0-172.647105-77.29748-172.647105-172.652222 0-95.349625 77.29748-172.647105 172.647105-172.647105C509.157255 17.209964 586.454736 94.506421 586.454736 189.857069zM362.345562 559.707558l198.097754-83.496669c12.116969-5.109368 32.305777-6.766101 45.088918-3.703345l4.532223 1.085728c-10.444886-41.219797-45.472658-48.647977-128.769782-48.647977L296.137651 424.945295c-67.74287 0-104.245226-1.928932-126.306684 44.279483-0.320295 0.662079-19.85828 51.833529-40.158628 115.059526-10.151197 31.650861-20.48352 66.292845-28.704762 99.726306-8.175193 33.658587-14.526855 65.268516-15.804964 95.465259l0.025583-0.710175-0.014326 0.323365c-0.035816 1.041726-0.084934 2.357697-0.084934 4.016477-0.034792 16.708544 4.499477 32.406061 10.885931 45.052079 12.287861 23.883967 29.009707 38.912242 46.248324 51.895951 30.439266 22.222117 66.030879 38.280862 104.281041 52.975539 113.832582 43.00342 252.229628 68.352761 254.099209 68.837808 3.994987 0.743944 7.974625 1.102101 11.901051 1.102101 30.447453 0 57.546647-21.665439 63.327304-52.689013 6.53381-35.020608-16.562211-68.701708-51.586912-75.234495 0 0-1.095961-0.207731-3.580548-0.692778-18.519796-3.563152-106.681718-21.456684-186.79022-47.409776-39.870056-12.798491-77.92886-28.073382-101.412714-41.86141-7.746428-4.425799-13.759375-8.765641-17.508769-11.866259 1.685385-14.832823 5.678326-35.932374 11.287067-58.390875 8.515954-34.668591 20.408819-73.482595 31.633465-107.519806-10.587126 63.638389-23.547299 149.565411-24.867364 158.285003 2.185782 1.468444 4.803399 3.115967 7.834432 4.847401 21.389146 12.55392 57.107649 27.259854 98.1893 40.442084 1.139963 0.369414 2.28095 0.735757 3.422959 1.101077-1.307785-3.296069-2.041496-6.77838-2.041496-10.261715L340.410993 592.757279C340.407923 579.609841 350.23064 564.810786 362.345562 559.707558zM884.262422 808.970622c-0.010233 0-0.729617-0.023536-2.573615-0.12689-0.276293-0.014326-0.582261-0.030699-0.901533-0.048095-0.350994 0.165776-0.697895 0.352017-1.052982 0.50142l-198.084451 83.502809c-12.114922 5.109368-32.30373 6.759961-45.088918 3.701299l-13.33061-3.194762c0.088004 0.36532 0.178055 0.741897 0.26606 1.103124 10.864442 4.027733 21.952988 7.538697 33.302477 10.879792 49.586348 13.967106 103.710037 21.635763 146.617265 26.376741 42.794665 4.685719 73.927733 6.125511 74.853825 6.17156 1.014096 0.052189 2.028193 0.074701 3.038196 0.074701 34.250058 0 62.786998-26.944676 64.387449-61.500703C947.358459 840.811818 919.850965 810.632471 884.262422 808.970622zM865.683275 572.735269 687.072341 648.021953c-8.457626 3.564175-15.318894 13.902638-15.318894 23.077601l0 185.710632c0 9.18315 6.861268 13.733792 15.318894 10.174734l178.610934-75.293847c8.460696-3.563152 15.319917-13.892405 15.319917-23.077601L881.003192 582.8967C881.003192 573.720713 874.14397 569.171094 865.683275 572.735269zM623.778806 652.930753l-248.696152-59.60247c-8.955976-2.149966-16.216333 3.581572-16.216333 12.787234l0 186.882318c0 9.203616 7.260357 18.407232 16.216333 20.558222l248.696152 59.60247c8.956999 2.143826 16.21531-3.581572 16.21531-12.787234L639.994116 673.488974C639.993093 664.279219 632.735805 655.074579 623.778806 652.930753zM385.647267 697.033203l-4.846378-1.417279 0.137123-6.850012-6.440689-1.883907-3.514033 5.862521-4.689812-1.372254 13.849426-22.052249 5.816472 1.700735L385.647267 697.033203zM401.324318 701.618639l-13.226233-3.868097 7.033184-24.045649 4.627391 1.353834-5.89015 20.136619 8.598842 2.515287L401.324318 701.618639zM416.971693 706.194864l-13.226233-3.868097 7.033184-24.045649 4.627391 1.353834-5.889127 20.136619 8.598842 2.515287L416.971693 706.194864zM420.119383 698.494485l0.933255-3.189645 8.567119 2.506077-0.933255 3.189645L420.119383 698.494485zM441.916828 713.491037l3.02694-10.349719-8.192589-2.39556-3.02694 10.349719-4.627391-1.353834 7.033184-24.045649 4.627391 1.353834-2.807952 9.599635 8.192589 2.39556 2.807952-9.599635 4.627391 1.353834-7.033184 24.045649L441.916828 713.491037zM468.163609 721.16788l-4.846378-1.417279 0.137123-6.850012-6.440689-1.883907-3.514033 5.862521-4.689812-1.372254 13.849426-22.051225 5.816472 1.700735L468.163609 721.16788zM474.554156 723.037461l0.060375-26.085098 5.065366 1.481747-0.388856 11.42726c-0.051165 1.529843-0.121773 3.064802-0.203638 4.601808-0.086981 1.535983-0.211824 3.066849-0.381693 4.594645l0.094144 0.027629c0.692778-1.364067 1.417279-2.719948 2.185782-4.067642 0.769526-1.353834 1.546216-2.675946 2.340301-3.977591l5.892197-9.8176 4.971222 1.454118-14.349823 21.905916L474.554156 723.037461zM507.794212 710.865233l-8.317433-2.432399-1.700735 5.815449 7.848759 2.295276-1.106194 3.783163-7.848759-2.295276-1.957585 6.691399 8.81783 2.578732-1.133823 3.877307-13.44522-3.932566 7.033184-24.045649 12.944823 3.786233L507.794212 710.865233zM518.066159 735.763296c-3.053546-0.893346-5.469572-3.76065-5.412266-6.834662l4.845355-16.567327 13.653975 3.992941-1.035586 3.541663-9.254781-2.706645-3.700275 12.650111c-0.014326-0.004093 0.836041 1.678222 2.041496 2.030239 0.927115 0.271176 2.178619-0.154519 2.828418-0.605797l3.13234-10.707876 4.383844 1.282203-3.241834 11.082406C524.69923 735.543286 521.118682 736.656643 518.066159 735.763296zM570.716286 728.395492l-1.044796 3.570315-1.035586 3.541663-4.399193-1.286296-3.656273-1.069355-2.739391 9.364275c2.01796-0.166799 4.100388-0.552585 6.243191-1.146103l0.796132 3.583618c-2.662643 0.73678-5.454222 1.212618-8.144494 1.342578L551.617299 763.798816l5.984295 1.750877-1.035586 3.541663-10.383488-3.037173 5.826705-19.920702c-1.01205-0.130983-1.984191-0.327458-2.902096-0.595564l0.099261-3.815909c1.25662 0.367367 2.548032 0.618077 3.871167 0.757247l3.104711-10.613732-11.867282-3.471055-2.4017 8.212032 6.28924 1.839905-0.943488 3.224438-6.28924-1.839905-0.938372 3.208065c-1.038656 3.551896-4.761444 5.590322-8.31334 4.551666s-5.590322-4.761444-4.551666-8.314363c0.950651-3.25002 4.148483-5.231141 7.405667-4.749164l0.907673 0.198521 2.407839 0.704035 2.4017-8.212032-8.881274-2.597151 1.035586-3.541663 8.881274 2.598174 0.868787-2.970658-7.763824-2.270716 1.035586-3.541663c4.825912 1.411139 9.651824 2.823302 14.477736 4.234441l-1.035586 3.541663-2.690272-0.786922-0.868787 2.970658 11.867282 3.471055 1.904373-6.512321 4.399193 1.286296-1.904373 6.512321 3.656273 1.069355 1.451048-4.960988c0.096191-0.329505 0.010233-1.332345-0.295735-1.77032l3.815909 1.116427C570.685587 725.848483 570.95881 727.282135 570.716286 728.395492zM577.472154 753.139036c-3.053546-0.893346-5.469572-3.76065-5.412266-6.834662l4.845355-16.567327 13.653975 3.993964-1.035586 3.541663-9.254781-2.706645-3.700275 12.650111c-0.01535-0.004093 0.836041 1.678222 2.041496 2.030239 0.927115 0.271176 2.178619-0.154519 2.828418-0.605797l3.13234-10.707876 4.383844 1.282203-3.241834 11.083429C584.106248 752.918002 580.5257 754.032382 577.472154 753.139036zM591.360466 765.03497l-4.399193-1.286296 2.594081-8.868995 4.399193 1.286296L591.360466 765.03497zM594.866313 753.044892l-4.399193-1.286296 2.13871-7.311523 4.399193 1.286296L594.866313 753.044892zM593.518618 741.327012l2.13871-7.311523 4.399193 1.286296-2.13871 7.311523L593.518618 741.327012zM628.39494 757.134023l-1.035586 3.541663-2.237971-0.653893-3.194762 10.924817c-0.376577 1.264806-2.070148 2.430352-3.53757 1.9934-5.799076-1.695618-10.473539-3.063779-16.272615-4.759397l1.035586-3.541663 12.910031 3.776c0.74906 0.218988 1.958608-0.441045 2.178619-1.193175l2.482541-8.486278-14.595416-4.269233-1.224898 4.188392 12.972453 3.794419-1.035586 3.541663-17.371646-5.080715 2.260483-7.730055-2.236947-0.653893 1.035586-3.541663 2.236947 0.653893 2.260483-7.730055c7.797593 2.28095 15.595186 4.561899 23.393803 6.841825l-2.260483 7.730055L628.39494 757.134023zM615.648638 758.159376l-0.734734 2.51324-4.936429-1.443885 0.734734-2.51324L615.648638 758.159376zM631.051443 748.052181l-27.867698-8.150634 1.697665-4.848425 4.14132 1.211595-0.404206 1.381463 23.469528 6.864338L631.051443 748.052181zM530.35095 740.195236c-0.488117 1.669012 0.384763 3.582595 2.074242 4.076852 1.90335 0.556679 2.838651-0.36839 3.459798-2.051729l1.044796-3.571339-2.446725-0.715291C532.593014 737.487567 530.996656 737.987964 530.35095 740.195236zM463.417515 699.578166c-0.285502 0.533143-0.572028 1.066285-0.861624 1.592264-0.289596 0.525979-0.561795 1.01205-0.815575 1.453095l-3.048429 5.082762 5.127787 1.500167 0.161682-5.892197c0.022513-0.542352 0.054235-1.115404 0.092098-1.727341 0.035816-0.605797 0.076748-1.210571 0.122797-1.814322 0.045025-0.597611 0.085958-1.162476 0.125867-1.688455l-0.094144-0.027629C463.978287 698.531324 463.705064 699.039907 463.417515 699.578166zM380.901173 675.443489c-0.285502 0.533143-0.572028 1.066285-0.861624 1.592264-0.289596 0.525979-0.561795 1.01205-0.815575 1.453095l-3.048429 5.082762 5.127787 1.500167 0.161682-5.892197c0.022513-0.542352 0.054235-1.115404 0.092098-1.727341 0.035816-0.605797 0.076748-1.210571 0.122797-1.814322 0.045025-0.597611 0.085958-1.162476 0.125867-1.688455l-0.094144-0.027629C381.461945 674.396647 381.188722 674.90523 380.901173 675.443489zM607.163383 750.924601l14.595416 4.269233 1.224898-4.188392-14.595416-4.269233L607.163383 750.924601zM612.972693 748.986459l4.936429 1.443885-0.734734 2.51324-4.936429-1.443885L612.972693 748.986459zM846.586334 547.912931l-245.928109-58.930157c-9.115612-2.188852-23.505343-1.006933-32.140001 2.63399l-176.101787 74.232678c-8.639774 3.640923-8.251941 8.364505 0.862647 10.547217l245.940388 58.931181c9.115612 2.186805 23.50432 1.00591 32.141024-2.63399l176.090531-74.232678C856.088756 554.818201 855.701946 550.093597 846.586334 547.912931zM530.35095 740.195236c-0.488117 1.669012 0.384763 3.582595 2.074242 4.076852 1.90335 0.556679 2.838651-0.36839 3.459798-2.051729l1.044796-3.571339-2.446725-0.715291C532.593014 737.487567 530.996656 737.987964 530.35095 740.195236zM380.901173 675.443489c-0.285502 0.533143-0.572028 1.066285-0.861624 1.592264-0.289596 0.525979-0.561795 1.01205-0.815575 1.453095l-3.048429 5.082762 5.127787 1.500167 0.161682-5.892197c0.022513-0.542352 0.054235-1.115404 0.092098-1.727341 0.035816-0.605797 0.076748-1.210571 0.122797-1.814322 0.045025-0.597611 0.085958-1.162476 0.125867-1.688455l-0.094144-0.027629C381.461945 674.396647 381.188722 674.90523 380.901173 675.443489zM463.417515 699.578166c-0.285502 0.533143-0.572028 1.066285-0.861624 1.592264-0.289596 0.525979-0.561795 1.01205-0.815575 1.453095l-3.048429 5.082762 5.127787 1.500167 0.161682-5.892197c0.022513-0.542352 0.054235-1.115404 0.092098-1.727341 0.035816-0.605797 0.076748-1.210571 0.122797-1.814322 0.045025-0.597611 0.085958-1.162476 0.125867-1.688455l-0.094144-0.027629C463.978287 698.531324 463.705064 699.039907 463.417515 699.578166zM607.163383 750.924601l14.595416 4.269233 1.224898-4.188392-14.595416-4.269233L607.163383 750.924601zM612.972693 748.986459l4.936429 1.443885-0.734734 2.51324-4.936429-1.443885L612.972693 748.986459zM530.35095 740.195236c-0.488117 1.669012 0.384763 3.582595 2.074242 4.076852 1.90335 0.556679 2.838651-0.36839 3.459798-2.051729l1.044796-3.571339-2.446725-0.715291C532.593014 737.487567 530.996656 737.987964 530.35095 740.195236z" p-id="1734" fill="#1296db"></path></svg>